<svg width="1280" height="720" viewBox="0 0 1280 720" fill="none" xmlns="http://www.w3.org/2000/svg">
<path d="M500 250C614.16 250 614.16 250 627.25 254.688C628 254.949 628.749 255.21 629.521 255.479C646.784 261.742 661.231 273.735 669.312 290.375C677.666 309.647 678.973 332.915 671.75 352.75C665.829 366.974 657.542 376.783 644.758 385.152C642 386.871 642 386.871 640 389C646.323 400.775 652.687 412.518 659.312 424.125C664.216 432.737 668.98 441.419 673.66 450.154C674.382 451.501 675.105 452.847 675.83 454.193C676.845 456.078 677.853 457.966 678.859 459.855C679.442 460.945 680.024 462.034 680.624 463.157C681.769 465.522 682.425 467.471 683 470C674.629 470.232 666.259 470.41 657.886 470.518C653.997 470.57 650.111 470.641 646.224 470.754C642.469 470.863 638.717 470.923 634.961 470.949C633.531 470.967 632.101 471.003 630.672 471.057C626.279 471.217 622.242 471.213 618 470C614.979 467.049 613.534 463.892 612 460C611.444 458.983 610.889 457.967 610.316 456.919C609.879 456.064 609.442 455.209 608.992 454.328C608.486 453.345 607.981 452.362 607.46 451.349C606.937 450.326 606.414 449.304 605.875 448.25C601.097 438.981 596.275 429.74 591.154 420.655C588.533 415.98 586.219 411.42 584.45 406.355C583.043 403.342 580.938 400.702 579 398C572.73 397.67 566.46 397.34 560 397C560 421.09 560 445.18 560 470C540.2 470 520.4 470 500 470C500 397.4 500 324.8 500 250ZM560 299C560 315.83 560 332.66 560 350C564.909 350.062 569.817 350.124 574.875 350.188C577.166 350.228 577.166 350.228 579.503 350.27C590.841 350.339 599.718 349.397 608.148 341.234C612.695 335.748 613.534 329.452 613.285 322.484C612.469 315.37 610.114 309.998 605 305C595.807 298.189 585.458 298.741 574.5 298.875C569.715 298.916 564.93 298.958 560 299Z" fill="#FEFEFE"/>
<path d="M325 250C352.06 250 379.12 250 407 250C416.984 279.172 426.879 308.372 436.709 337.596C437.83 340.926 438.95 344.255 440.071 347.585C449.085 374.367 458.099 401.149 466.98 427.976C467.551 429.7 468.123 431.424 468.695 433.148C469.091 434.344 469.091 434.344 469.495 435.565C471.017 440.137 472.589 444.689 474.198 449.231C474.569 450.282 474.94 451.332 475.322 452.414C476.045 454.452 476.772 456.488 477.506 458.522C477.994 459.899 477.994 459.899 478.492 461.303C478.929 462.52 478.929 462.52 479.375 463.762C480 466 480 466 480 470C457.56 470 435.12 470 412 470C410.02 463.627 408.04 457.254 406 450.688C405.374 448.679 404.747 446.67 404.102 444.6C403.609 443.008 403.117 441.416 402.625 439.824C402.236 438.584 402.236 438.584 401.84 437.319C401.596 436.528 401.353 435.736 401.102 434.921C400.888 434.234 400.675 433.548 400.456 432.841C400 431 400 431 400 428C377.89 428 355.78 428 333 428C332.34 431.3 331.68 434.6 331 438C330.324 440.583 329.616 443.158 328.871 445.723C328.677 446.394 328.482 447.066 328.282 447.758C327.876 449.154 327.468 450.549 327.059 451.944C326.43 454.088 325.809 456.234 325.189 458.381C324.792 459.745 324.394 461.109 323.996 462.473C323.637 463.702 323.278 464.932 322.908 466.199C322 469 322 469 321 470C318.914 470.094 316.824 470.117 314.736 470.114C313.756 470.114 313.756 470.114 312.755 470.114C310.586 470.113 308.416 470.105 306.246 470.098C304.745 470.096 303.245 470.094 301.744 470.093C297.787 470.09 293.83 470.08 289.873 470.069C285.838 470.058 281.803 470.054 277.768 470.049C269.845 470.038 261.923 470.021 254 470C256.064 461.144 258.669 452.553 261.543 443.93C261.988 442.583 262.433 441.235 262.878 439.888C263.82 437.032 264.765 434.177 265.712 431.323C268.225 423.749 270.721 416.169 273.219 408.59C273.594 407.451 273.594 407.451 273.977 406.29C278.458 392.697 282.85 379.077 287.188 365.438C292.979 347.243 298.866 329.082 304.812 310.938C305.384 309.192 305.384 309.192 305.967 307.411C312.244 288.251 318.624 269.127 325 250ZM365 303C364.865 303.589 364.731 304.177 364.592 304.784C361.411 318.674 358.18 332.553 354.906 346.421C354.514 348.084 354.122 349.747 353.731 351.41C353.173 353.783 352.613 356.155 352.051 358.527C351.874 359.273 351.698 360.019 351.516 360.787C350.306 365.842 348.976 370.852 347.505 375.838C346.848 378.279 346.848 378.279 347 382C359.87 382 372.74 382 386 382C382.884 369.483 382.884 369.483 379.633 357.004C379.22 355.451 378.808 353.899 378.396 352.346C378.188 351.564 377.98 350.781 377.766 349.975C373.621 334.367 369.646 318.734 366 303C365.67 303 365.34 303 365 303Z" fill="#FEFEFE"/>
<path d="M218.652 269.125C235.567 283.72 246.326 303.728 249 326C249 327.65 249 329.3 249 331C228.87 331 208.74 331 188 331C186.02 325.06 186.02 325.06 184 319C179.263 310.407 173.657 305.455 164.375 302.125C151.989 298.918 139.15 300.502 127.992 306.66C115.786 314.759 111.475 326.401 108 340C105.124 354.961 105.116 373.466 110 388C110.528 389.572 110.528 389.572 111.066 391.176C115.396 402.651 121.927 410.778 133.141 415.996C144.438 420.502 156.644 420.127 168 416C177.677 411.102 182.867 404.637 186.238 394.453C186.615 393.239 186.615 393.239 187 392C187.33 391.01 187.66 390.02 188 389C208.13 389 228.26 389 249 389C249 410.917 237.309 430.218 222.688 445.75C199.222 468.15 170.345 472.809 139.101 472.237C112.75 471.526 88.453 459.308 70.2227 440.531C58.7056 427.415 51.273 411.827 47 395C46.679 393.739 46.3581 392.479 46.0273 391.18C41.5011 370.663 41.8337 345.332 47 325C47.1663 324.335 47.3326 323.67 47.5039 322.984C53.7503 298.739 68.1749 276.03 90 263C129.432 240.749 182.299 239.999 218.652 269.125Z" fill="#FEFEFE"/>
<path d="M695 250C757.7 250 820.4 250 885 250C885 266.17 885 282.34 885 299C863.55 299 842.1 299 820 299C820 355.43 820 411.86 820 470C800.2 470 780.4 470 760 470C760 413.57 760 357.14 760 299C738.55 299 717.1 299 695 299C695 282.83 695 266.66 695 250Z" fill="#FEFEFE"/>
<path d="M903 258C946.526 257.908 990.052 257.838 1033.58 257.796C1038.72 257.791 1043.86 257.786 1049 257.78C1050.53 257.779 1050.53 257.779 1052.1 257.777C1068.66 257.76 1085.22 257.728 1101.79 257.691C1118.79 257.654 1135.78 257.632 1152.78 257.624C1163.27 257.618 1173.76 257.601 1184.24 257.568C1191.44 257.547 1198.63 257.541 1205.82 257.546C1209.97 257.549 1214.12 257.545 1218.27 257.523C1222.07 257.504 1225.87 257.503 1229.68 257.516C1231.69 257.519 1233.71 257.502 1235.73 257.484C1244.55 257.541 1251.16 259.141 1258.75 263.625C1265.67 270.927 1268.43 278.455 1268.34 288.362C1267.76 294.578 1265.44 299.927 1263 305.625C1262.5 306.842 1262 308.059 1261.49 309.313C1260.02 312.887 1258.51 316.444 1257 320C1256.22 321.86 1255.44 323.721 1254.66 325.582C1253.36 328.704 1252.04 331.82 1250.71 334.934C1248.77 339.49 1247.01 344.105 1245.3 348.75C1244.21 351.464 1243.05 354.088 1241.82 356.738C1238.13 364.77 1234.91 372.989 1231.62 381.187C1227.66 391.07 1223.68 400.928 1219.34 410.653C1217.53 414.727 1215.88 418.828 1214.31 423C1211.16 431.303 1207.55 438.052 1202 445C1201.09 446.23 1201.09 446.23 1200.15 447.484C1197.82 450.205 1195.52 452.046 1192.56 454.062C1191.64 454.713 1190.71 455.364 1189.75 456.035C1176.24 463.633 1161.77 462.55 1146.75 462.47C1144.09 462.47 1141.43 462.473 1138.77 462.477C1132.33 462.483 1125.88 462.468 1119.43 462.446C1111.92 462.421 1104.41 462.418 1096.9 462.416C1083.5 462.413 1070.11 462.39 1056.72 462.357C1043.72 462.324 1030.72 462.303 1017.72 462.295C1016.92 462.295 1016.11 462.294 1015.29 462.294C1012.06 462.292 1008.83 462.29 1005.61 462.288C993.215 462.28 980.822 462.265 968.428 462.247C964.684 462.242 960.939 462.237 957.194 462.233C949.327 462.224 941.461 462.212 933.594 462.192C930.341 462.183 927.088 462.176 923.836 462.173C920.318 462.169 916.801 462.159 913.283 462.147C912.244 462.147 911.205 462.148 910.135 462.148C909.201 462.143 908.266 462.139 907.303 462.134C906.084 462.132 906.084 462.132 904.84 462.129C903 462 903 462 902 461C901.901 459.169 901.87 457.334 901.875 455.5C901.872 454.5 901.87 453.499 901.867 452.469C902 450 902 450 903 449C904.419 448.901 905.843 448.872 907.265 448.87C908.191 448.866 909.117 448.862 910.071 448.859C911.1 448.86 912.129 448.861 913.189 448.862C914.273 448.859 915.358 448.856 916.474 448.853C920.138 448.845 923.801 448.844 927.465 448.842C930.079 448.838 932.693 448.832 935.308 448.827C940.954 448.815 946.601 448.807 952.247 448.801C961.177 448.79 970.106 448.77 979.035 448.748C982.089 448.74 985.143 448.733 988.197 448.725C989.342 448.723 989.342 448.723 990.51 448.72C999.207 448.699 1007.9 448.68 1016.6 448.662C1017.4 448.66 1018.19 448.659 1019.01 448.657C1031.88 448.631 1044.75 448.612 1057.62 448.595C1070.84 448.578 1084.05 448.549 1097.27 448.511C1105.42 448.487 1113.57 448.473 1121.72 448.471C1127.97 448.469 1134.22 448.451 1140.48 448.427C1143.04 448.42 1145.6 448.418 1148.16 448.422C1151.66 448.425 1155.17 448.411 1158.67 448.392C1160.18 448.4 1160.18 448.4 1161.73 448.409C1172.19 448.311 1180.85 445.667 1189 439C1190.38 437.372 1191.74 435.72 1193 434C1193.66 434 1194.32 434 1195 434C1195.25 433.187 1195.5 432.373 1195.76 431.535C1197.22 427.382 1198.99 423.439 1200.81 419.437C1203.61 413.224 1206.2 406.99 1208.59 400.605C1210.45 395.854 1212.47 391.182 1214.5 386.5C1216.91 380.929 1219.3 375.37 1221.44 369.687C1224.92 360.429 1228.83 351.339 1232.65 342.217C1234.86 336.959 1237.05 331.699 1239.25 326.437C1239.67 325.436 1240.09 324.435 1240.52 323.403C1243.33 316.646 1246.08 309.867 1248.75 303.051C1249.85 300.372 1251.07 297.832 1252.38 295.25C1254.59 290.266 1255.07 285.354 1254 280C1252.45 277.079 1250.73 274.882 1248 273C1244.32 272.066 1240.87 271.872 1237.08 271.864C1235.29 271.857 1235.29 271.857 1233.46 271.849C1232.15 271.849 1230.85 271.849 1229.5 271.848C1228.09 271.845 1226.69 271.84 1225.28 271.836C1221.42 271.824 1217.55 271.819 1213.69 271.814C1209.52 271.808 1205.36 271.796 1201.19 271.785C1193.97 271.767 1186.75 271.752 1179.54 271.74C1169.1 271.721 1158.66 271.697 1148.22 271.67C1131.29 271.627 1114.35 271.588 1097.41 271.552C1095.89 271.549 1095.89 271.549 1094.34 271.546C1086.11 271.528 1077.89 271.511 1069.66 271.493C1062.46 271.478 1055.26 271.463 1048.06 271.448C1046.54 271.444 1046.54 271.444 1044.99 271.441C1028.12 271.405 1011.24 271.365 994.362 271.322C983.944 271.296 973.526 271.274 963.109 271.255C955.979 271.243 948.848 271.227 941.718 271.208C937.599 271.197 933.479 271.188 929.36 271.183C925.595 271.179 921.83 271.17 918.065 271.157C916.045 271.152 914.025 271.151 912.005 271.151C910.23 271.143 910.23 271.143 908.419 271.136C906.874 271.133 906.874 271.133 905.299 271.129C903 271 903 271 902 270C901.901 268.357 901.87 266.709 901.875 265.062C901.872 264.167 901.87 263.271 901.867 262.348C902 260 902 260 903 258Z" fill="#FEFEFE"/>
<path d="M1073 307C1076.15 306.971 1079.29 306.953 1082.44 306.938C1083.34 306.929 1084.23 306.921 1085.16 306.912C1086.01 306.909 1086.87 306.906 1087.75 306.902C1088.93 306.894 1088.93 306.894 1090.14 306.886C1092 307 1092 307 1093 308C1093.11 309.508 1093.15 311.021 1093.16 312.532C1093.17 313.497 1093.18 314.462 1093.19 315.456C1093.2 316.507 1093.2 317.558 1093.21 318.641C1093.24 320.848 1093.27 323.055 1093.3 325.262C1093.34 328.755 1093.38 332.249 1093.4 335.743C1093.43 339.105 1093.47 342.466 1093.52 345.828C1093.53 346.871 1093.53 347.914 1093.53 348.988C1093.5 356.093 1093.5 356.093 1097 362C1102.77 365.406 1108.16 365.469 1114.75 365.512C1116.09 365.537 1116.09 365.537 1117.47 365.562C1120.79 365.62 1124.11 365.652 1127.44 365.688C1134.88 365.791 1142.33 365.894 1150 366C1150 346.53 1150 327.06 1150 307C1156.27 307 1162.54 307 1169 307C1169 326.47 1169 345.94 1169 366C1176.59 366 1184.18 366 1192 366C1191.17 370.173 1190.14 373.377 1188.5 377.25C1188.06 378.307 1187.61 379.364 1187.16 380.453C1186 383 1186 383 1185 384C1182.3 384.073 1179.64 384.092 1176.94 384.062C1174.32 384.042 1171.7 384.021 1169 384C1169 393.24 1169 402.48 1169 412C1162.73 412 1156.46 412 1150 412C1150 402.76 1150 393.52 1150 384C1144.47 384.087 1144.47 384.087 1138.83 384.176C1135.22 384.215 1131.62 384.245 1128.02 384.275C1125.53 384.3 1123.04 384.334 1120.55 384.377C1116.95 384.438 1113.36 384.466 1109.77 384.488C1108.67 384.514 1107.57 384.54 1106.44 384.566C1096.32 384.57 1087.66 381.776 1080 375C1078.23 372.195 1078.23 372.195 1076.75 369.125C1076.25 368.117 1075.75 367.109 1075.23 366.07C1072.54 359.369 1072.87 352.586 1072.9 345.477C1072.9 344.375 1072.91 343.274 1072.91 342.139C1072.91 338.634 1072.92 335.13 1072.94 331.625C1072.94 329.243 1072.95 326.862 1072.95 324.48C1072.96 318.654 1072.98 312.827 1073 307Z" fill="#FEFEFE"/>
<path d="M928 307C947.498 304.642 947.498 304.642 952.828 308.23C955.81 311.632 957.441 315.712 959.096 319.879C960.564 323.323 962.572 326.402 964.562 329.562C968.14 335.479 971.582 341.468 974.98 347.488C977.051 351.123 979.212 354.702 981.37 358.286C984.207 363.01 987.009 367.756 989.812 372.5C990.397 373.487 990.982 374.475 991.584 375.492C992.14 376.433 992.696 377.374 993.27 378.344C993.771 379.191 994.272 380.039 994.788 380.912C995.566 382.252 996.307 383.614 997 385C1002.81 375.769 1008.31 366.371 1013.79 356.943C1017.05 351.334 1020.33 345.74 1023.69 340.188C1030.31 329.233 1036.65 318.113 1043 307C1050.26 307 1057.52 307 1065 307C1064.15 310.394 1063.5 312.1 1061.71 314.941C1061.24 315.684 1060.78 316.427 1060.31 317.193C1059.57 318.366 1059.57 318.366 1058.81 319.562C1055.18 325.411 1051.69 331.278 1048.46 337.359C1046.16 341.52 1043.64 345.536 1041.12 349.566C1038.36 354.009 1035.69 358.509 1033 363C1032.07 364.55 1031.14 366.099 1030.21 367.648C1029.52 368.8 1029.52 368.8 1028.81 369.976C1027.82 371.633 1026.83 373.29 1025.83 374.946C1023.13 379.443 1020.44 383.946 1017.77 388.461C1017.24 389.347 1016.71 390.234 1016.17 391.147C1015.17 392.829 1014.18 394.514 1013.19 396.201C1009.64 402.155 1005.92 408.079 1001 413C997.857 413.781 995.156 413.68 992 413C986.185 408.287 982.59 401.275 979.062 394.812C978.02 392.944 976.976 391.077 975.93 389.211C975.429 388.315 974.929 387.418 974.413 386.495C971.993 382.221 969.393 378.068 966.793 373.902C964.977 370.963 963.231 367.991 961.5 365C958.452 359.739 955.284 354.561 952.086 349.391C949.577 345.313 947.109 341.213 944.655 337.103C942.387 333.305 940.1 329.519 937.797 325.742C937.251 324.843 936.704 323.943 936.142 323.016C935.064 321.242 933.983 319.47 932.897 317.701C932.405 316.888 931.913 316.076 931.406 315.238C930.746 314.156 930.746 314.156 930.072 313.052C929.016 311.031 928.449 309.228 928 307Z" fill="#FEFEFE"/>
<path d="M1192 435.5L1198 426" stroke="white" stroke-width="0.1"/>
<path d="M1196.3 431.585C1196.04 431.644 1195.87 432.043 1195.72 432.221C1195.57 432.393 1195.38 432.516 1195.23 432.685C1195.1 432.824 1195.03 432.991 1194.95 433.153C1194.9 433.244 1194.86 433.336 1194.8 433.421C1194.77 433.455 1194.77 433.509 1194.79 433.543C1194.8 433.546 1194.9 433.311 1194.91 433.289C1195.03 433.064 1195.2 432.877 1195.32 432.66C1195.54 432.283 1195.75 431.913 1196.01 431.568C1196.21 431.316 1195.55 432.007 1195.36 432.263C1195.17 432.521 1195.03 432.804 1194.95 433.116C1194.91 433.304 1194.87 433.479 1194.8 433.656C1194.75 433.775 1194.71 433.889 1194.65 434.001C1194.61 434.067 1194.53 434.137 1194.53 434.215" stroke="white" stroke-linecap="round"/>
<path d="M1193.45 434.033C1193.45 434.033 1193.49 434.012 1193.51 434C1193.54 433.982 1193.57 433.95 1193.6 433.934C1193.67 433.894 1193.69 433.803 1193.78 433.784C1193.92 433.753 1194.06 433.531 1194.13 433.428C1194.22 433.299 1194.31 433.21 1194.44 433.127C1194.5 433.093 1194.62 433.014 1194.65 432.958" stroke="white" stroke-linecap="round"/>
<path d="M1193.72 433.735C1193.72 433.687 1193.73 433.63 1193.78 433.603C1193.83 433.576 1193.83 433.504 1193.88 433.474C1193.98 433.42 1194.08 433.315 1194.15 433.223C1194.21 433.14 1194.25 433.057 1194.32 432.983C1194.39 432.911 1194.46 432.833 1194.53 432.759C1194.57 432.721 1194.59 432.658 1194.64 432.628C1194.71 432.581 1194.5 432.728 1194.43 432.78C1194.3 432.88 1194.21 433.026 1194.1 433.14C1194.08 433.161 1193.99 433.24 1194.01 433.222C1194.06 433.182 1194.09 433.118 1194.13 433.074C1194.22 432.984 1194.33 432.911 1194.41 432.818C1194.46 432.771 1194.44 432.666 1194.49 432.627C1194.52 432.605 1194.53 432.558 1194.55 432.528" stroke="white" stroke-linecap="round"/>
<path d="M1194.46 432.693C1194.4 432.693 1194.31 432.772 1194.28 432.826" stroke="white" stroke-linecap="round"/>
<path d="M1197.6 426.723C1197.57 426.729 1197.59 426.789 1197.59 426.807C1197.6 426.833 1197.62 426.86 1197.62 426.887C1197.62 426.896 1197.61 426.898 1197.61 426.902C1197.58 426.917 1197.55 426.933 1197.53 426.947C1197.52 426.95 1197.5 426.956 1197.49 426.963C1197.49 426.971 1197.5 426.946 1197.51 426.937C1197.54 426.898 1197.55 426.853 1197.58 426.814C1197.6 426.795 1197.58 426.826 1197.57 426.831C1197.55 426.858 1197.53 426.884 1197.51 426.911C1197.48 426.953 1197.44 427.005 1197.43 427.054C1197.42 427.076 1197.41 427.098 1197.41 427.119C1197.4 427.127 1197.41 427.104 1197.41 427.097C1197.43 427.076 1197.44 427.055 1197.45 427.033C1197.46 427.014 1197.46 426.993 1197.47 426.973C1197.47 426.964 1197.48 426.956 1197.48 426.948C1197.48 426.948 1197.48 426.937 1197.49 426.938C1197.5 426.946 1197.42 427.115 1197.41 427.13C1197.38 427.195 1197.35 427.256 1197.32 427.323C1197.31 427.369 1197.28 427.414 1197.29 427.465C1197.29 427.475 1197.29 427.488 1197.29 427.498C1197.29 427.505 1197.31 427.475 1197.31 427.474C1197.33 427.415 1197.35 427.359 1197.38 427.303C1197.4 427.253 1197.41 427.197 1197.44 427.147C1197.44 427.143 1197.44 427.132 1197.44 427.128C1197.44 427.123 1197.44 427.135 1197.44 427.139C1197.43 427.152 1197.42 427.164 1197.41 427.177C1197.39 427.209 1197.37 427.241 1197.34 427.27C1197.33 427.285 1197.33 427.306 1197.31 427.322C1197.31 427.326 1197.29 427.35 1197.29 427.345C1197.29 427.323 1197.31 427.291 1197.31 427.27C1197.32 427.249 1197.33 427.231 1197.34 427.208C1197.34 427.195 1197.35 427.186 1197.35 427.173C1197.35 427.166 1197.35 427.188 1197.35 427.191C1197.34 427.223 1197.31 427.247 1197.29 427.271C1197.27 427.306 1197.24 427.341 1197.22 427.381C1197.22 427.406 1197.21 427.429 1197.19 427.453C1197.18 427.471 1197.18 427.492 1197.17 427.509C1197.16 427.528 1197.15 427.555 1197.14 427.571C1197.13 427.575 1197.13 427.587 1197.13 427.584C1197.14 427.577 1197.14 427.556 1197.15 427.547C1197.17 427.52 1197.19 427.495 1197.21 427.469C1197.23 427.434 1197.26 427.399 1197.28 427.366C1197.31 427.324 1197.33 427.279 1197.36 427.233C1197.38 427.19 1197.42 427.156 1197.44 427.11C1197.44 427.095 1197.45 427.072 1197.42 427.083C1197.41 427.09 1197.4 427.131 1197.39 427.145C1197.37 427.163 1197.35 427.199 1197.33 427.211C1197.32 427.219 1197.31 427.24 1197.3 427.252C1197.29 427.266 1197.28 427.282 1197.27 427.297C1197.25 427.317 1197.23 427.336 1197.22 427.355C1197.2 427.37 1197.19 427.389 1197.18 427.404C1197.17 427.414 1197.16 427.427 1197.15 427.438C1197.14 427.453 1197.12 427.466 1197.12 427.482C1197.11 427.507 1197.08 427.526 1197.07 427.548C1197.06 427.558 1197.05 427.58 1197.06 427.554C1197.06 427.537 1197.07 427.521 1197.07 427.504C1197.08 427.493 1197.09 427.483 1197.09 427.475C1197.1 427.467 1197.11 427.45 1197.11 427.446C1197.12 427.443 1197.13 427.419 1197.12 427.434C1197.11 427.459 1197.1 427.487 1197.08 427.513C1197.07 427.54 1197.06 427.571 1197.05 427.599C1197.02 427.644 1197 427.689 1196.97 427.734C1196.95 427.767 1196.92 427.794 1196.92 427.834C1196.92 427.867 1196.92 427.898 1196.91 427.93C1196.91 427.947 1196.9 427.965 1196.89 427.981C1196.88 428.007 1196.87 428.04 1196.86 428.062C1196.85 428.073 1196.85 428.088 1196.84 428.097C1196.82 428.115 1196.84 428.069 1196.85 428.062C1196.86 428.027 1196.88 427.988 1196.88 427.949C1196.88 427.945 1196.89 427.931 1196.89 427.934C1196.89 427.945 1196.88 427.952 1196.87 427.961C1196.86 427.978 1196.84 427.994 1196.83 428.013C1196.83 428.026 1196.81 428.046 1196.81 428.06C1196.81 428.077 1196.83 428.031 1196.84 428.016C1196.85 428.002 1196.84 428.019 1196.84 428.024C1196.82 428.049 1196.81 428.076 1196.8 428.099C1196.79 428.105 1196.77 428.13 1196.77 428.133" stroke="white" stroke-width="0.1" stroke-linecap="round"/>
<path d="M1196.9 427.824C1196.84 427.842 1196.81 427.897 1196.79 427.947C1196.77 427.971 1196.75 428.001 1196.75 428.027C1196.74 428.057 1196.75 428.055 1196.77 428.041C1196.8 428.02 1196.83 427.994 1196.86 427.967C1196.87 427.954 1196.88 427.939 1196.89 427.927C1196.89 427.925 1196.9 427.916 1196.9 427.915C1196.89 427.91 1196.82 428.001 1196.82 428.01C1196.78 428.046 1196.74 428.062 1196.72 428.11C1196.71 428.129 1196.7 428.147 1196.7 428.168" stroke="white" stroke-width="0.1" stroke-linecap="round"/>
<path d="M1197.3 427.434C1197.3 427.453 1197.3 427.469 1197.29 427.487C1197.27 427.535 1197.26 427.582 1197.23 427.629C1197.16 427.792 1197.07 427.945 1196.99 428.102C1196.92 428.234 1196.85 428.369 1196.81 428.511C1196.8 428.525 1196.79 428.544 1196.79 428.56C1196.79 428.572 1196.83 428.53 1196.83 428.529C1196.9 428.442 1196.95 428.341 1197 428.243C1197.06 428.119 1197.14 427.998 1197.2 427.868C1197.21 427.829 1197.23 427.79 1197.23 427.747C1197.24 427.703 1197.25 427.664 1197.26 427.621C1197.26 427.58 1197.27 427.54 1197.27 427.498C1197.27 427.477 1197.27 427.444 1197.25 427.432C1197.2 427.411 1197.16 427.426 1197.13 427.452C1197.12 427.461 1197.11 427.472 1197.09 427.48C1197.08 427.488 1197.07 427.491 1197.07 427.506C1197.07 427.519 1197.07 427.532 1197.07 427.545C1197.07 427.573 1197.11 427.594 1197.13 427.605" stroke="white" stroke-width="0.1" stroke-linecap="round"/>
<path d="M1197.28 427.516C1197.25 427.516 1197.24 427.55 1197.23 427.567C1197.18 427.636 1197.12 427.695 1197.08 427.762C1197 427.868 1196.93 427.976 1196.86 428.081C1196.82 428.127 1196.79 428.173 1196.78 428.226C1196.77 428.244 1196.79 428.222 1196.79 428.218C1196.82 428.194 1196.84 428.173 1196.86 428.144C1196.89 428.084 1196.92 428.022 1196.95 427.957C1196.98 427.895 1197 427.826 1197.03 427.766C1197.04 427.746 1197.05 427.727 1197.06 427.705C1197.06 427.699 1197.07 427.689 1197.07 427.684C1197.08 427.676 1197.1 427.651 1197.09 427.638C1197.08 427.627 1197.06 427.673 1197.06 427.676C1197.04 427.724 1197.02 427.769 1196.99 427.812C1196.95 427.865 1196.91 427.907 1196.86 427.945C1196.82 427.974 1196.79 428.007 1196.76 428.046C1196.74 428.069 1196.71 428.099 1196.71 428.131C1196.71 428.154 1196.7 428.166 1196.69 428.186C1196.67 428.235 1196.63 428.273 1196.61 428.322C1196.55 428.44 1196.51 428.566 1196.45 428.68" stroke="white" stroke-width="0.1" stroke-linecap="round"/>
<path d="M1197.06 427.898C1197.04 427.924 1197.03 427.948 1197.02 427.979C1197.01 427.987 1197 428.012 1197.01 428.01C1197.06 427.977 1197.09 427.899 1197.09 427.836" stroke="white" stroke-width="0.1" stroke-linecap="round"/>
<path d="M1194.07 432.344C1194.08 432.33 1194.09 432.311 1194.1 432.301C1194.11 432.282 1194.13 432.263 1194.14 432.246C1194.2 432.194 1194.24 432.131 1194.26 432.06C1194.28 432.015 1194.31 431.972 1194.32 431.932C1194.34 431.89 1194.39 431.863 1194.42 431.838C1194.46 431.811 1194.48 431.771 1194.49 431.73C1194.5 431.723 1194.51 431.716 1194.5 431.709C1194.5 431.703 1194.5 431.717 1194.5 431.719C1194.5 431.738 1194.48 431.757 1194.47 431.773C1194.45 431.792 1194.43 431.808 1194.42 431.828C1194.41 431.849 1194.4 431.868 1194.4 431.89C1194.39 431.927 1194.38 431.967 1194.36 432.002C1194.34 432.044 1194.32 432.092 1194.31 432.137C1194.31 432.14 1194.3 432.172 1194.31 432.169C1194.32 432.158 1194.33 432.143 1194.35 432.129C1194.38 432.09 1194.41 432.047 1194.44 432.005C1194.47 431.958 1194.5 431.914 1194.53 431.866C1194.57 431.796 1194.62 431.721 1194.65 431.645C1194.65 431.645 1194.65 431.631 1194.65 431.635C1194.64 431.647 1194.63 431.673 1194.62 431.689C1194.61 431.751 1194.6 431.816 1194.59 431.879C1194.57 431.952 1194.53 431.999 1194.49 432.056C1194.48 432.06 1194.45 432.107 1194.46 432.082C1194.47 432.052 1194.48 432.024 1194.49 431.995C1194.53 431.9 1194.54 431.801 1194.58 431.704C1194.58 431.698 1194.56 431.726 1194.56 431.731C1194.54 431.772 1194.51 431.813 1194.49 431.853C1194.47 431.893 1194.44 431.934 1194.41 431.972C1194.4 431.996 1194.34 432.064 1194.35 432.04C1194.37 432.017 1194.38 431.992 1194.4 431.967C1194.42 431.923 1194.45 431.883 1194.48 431.844C1194.54 431.765 1194.59 431.674 1194.62 431.582C1194.63 431.558 1194.64 431.533 1194.64 431.509C1194.65 431.495 1194.66 431.485 1194.65 431.507C1194.63 431.565 1194.59 431.616 1194.56 431.67C1194.56 431.68 1194.55 431.693 1194.54 431.701C1194.54 431.709 1194.56 431.683 1194.56 431.681C1194.57 431.666 1194.58 431.645 1194.6 431.633C1194.62 431.61 1194.66 431.599 1194.69 431.579C1194.7 431.569 1194.72 431.557 1194.74 431.541C1194.74 431.54 1194.7 431.553 1194.7 431.556C1194.64 431.588 1194.58 431.619 1194.52 431.648C1194.51 431.65 1194.48 431.677 1194.48 431.678C1194.49 431.68 1194.52 431.668 1194.53 431.666C1194.6 431.657 1194.67 431.649 1194.73 431.614C1194.75 431.607 1194.74 431.608 1194.73 431.61C1194.71 431.612 1194.68 431.622 1194.66 431.624C1194.63 431.627 1194.6 431.625 1194.57 431.625C1194.55 431.625 1194.53 431.624 1194.52 431.609C1194.5 431.582 1194.6 431.558 1194.62 431.551C1194.66 431.528 1194.7 431.495 1194.73 431.457C1194.74 431.449 1194.74 431.443 1194.73 431.449C1194.71 431.46 1194.68 431.47 1194.66 431.481C1194.62 431.495 1194.59 431.509 1194.56 431.527C1194.54 431.538 1194.53 431.551 1194.56 431.536C1194.58 431.52 1194.62 431.515 1194.65 431.504C1194.7 431.488 1194.74 431.469 1194.78 431.447C1194.81 431.432 1194.85 431.414 1194.84 431.378C1194.84 431.352 1194.75 431.412 1194.74 431.417C1194.71 431.432 1194.69 431.445 1194.65 431.445C1194.64 431.445 1194.6 431.45 1194.62 431.439C1194.66 431.412 1194.72 431.392 1194.77 431.379C1194.8 431.371 1194.83 431.364 1194.85 431.352C1194.87 431.347 1194.88 431.345 1194.86 431.348C1194.82 431.353 1194.79 431.368 1194.76 431.374C1194.72 431.381 1194.68 431.38 1194.65 431.388C1194.56 431.411 1194.84 431.36 1194.92 431.305C1194.93 431.299 1194.92 431.293 1194.91 431.293C1194.89 431.292 1194.86 431.292 1194.84 431.293C1194.8 431.295 1194.76 431.304 1194.72 431.308C1194.7 431.309 1194.67 431.307 1194.65 431.322C1194.65 431.329 1194.66 431.328 1194.66 431.328C1194.7 431.328 1194.72 431.317 1194.75 431.312C1194.81 431.305 1194.98 431.285 1194.92 431.285C1194.87 431.285 1194.83 431.285 1194.78 431.285C1194.76 431.285 1194.74 431.285 1194.72 431.285C1194.71 431.285 1194.73 431.278 1194.73 431.277C1194.78 431.262 1194.82 431.241 1194.86 431.225C1194.87 431.223 1194.9 431.212 1194.9 431.204C1194.9 431.2 1194.86 431.205 1194.86 431.205C1194.84 431.209 1194.81 431.209 1194.79 431.216C1194.77 431.22 1194.8 431.221 1194.81 431.22C1194.86 431.21 1194.91 431.197 1194.96 431.172C1194.96 431.171 1194.99 431.15 1194.98 431.149C1194.96 431.144 1194.94 431.149 1194.92 431.152C1194.89 431.157 1194.86 431.164 1194.84 431.168C1194.82 431.171 1194.82 431.174 1194.84 431.164C1194.86 431.145 1194.89 431.117 1194.92 431.095C1194.97 431.058 1195.03 431.012 1195.09 431.012" stroke="white" stroke-width="0.1" stroke-linecap="round"/>
<path d="M1194.87 431.117C1194.87 431.083 1194.89 431.053 1194.91 431.029C1194.94 430.999 1194.97 430.965 1195 430.935C1195.05 430.886 1195.08 430.827 1195.13 430.778C1195.16 430.746 1195.21 430.72 1195.23 430.678C1195.24 430.649 1195.19 430.723 1195.17 430.746C1195.13 430.785 1195.1 430.826 1195.07 430.866C1195.05 430.889 1195.04 430.913 1195.02 430.931C1195 430.947 1195 430.909 1195 430.897C1195 430.872 1195.01 430.848 1195.03 430.826C1195.03 430.812 1195.04 430.785 1195.05 430.776C1195.07 430.768 1195.08 430.745 1195.09 430.732C1195.11 430.713 1195.13 430.697 1195.14 430.676C1195.16 430.656 1195.16 430.633 1195.18 430.615C1195.2 430.601 1195.2 430.581 1195.21 430.566C1195.23 430.552 1195.23 430.531 1195.24 430.514C1195.24 430.5 1195.25 430.487 1195.26 430.474C1195.27 430.456 1195.27 430.44 1195.29 430.424C1195.31 430.401 1195.32 430.372 1195.33 430.349C1195.35 430.329 1195.36 430.315 1195.38 430.293C1195.39 430.27 1195.4 430.252 1195.42 430.234C1195.45 430.208 1195.46 430.173 1195.48 430.148C1195.5 430.128 1195.51 430.098 1195.53 430.078C1195.54 430.065 1195.55 430.048 1195.56 430.031C1195.57 430.014 1195.59 430 1195.6 429.984C1195.62 429.963 1195.62 429.929 1195.65 429.913C1195.66 429.906 1195.67 429.883 1195.68 429.871C1195.69 429.853 1195.7 429.833 1195.71 429.816" stroke="white" stroke-width="0.1" stroke-linecap="round"/>
<path d="M1195.64 429.879C1195.64 429.861 1195.64 429.835 1195.65 429.818C1195.66 429.8 1195.67 429.799 1195.69 429.787C1195.72 429.763 1195.74 429.72 1195.77 429.688C1195.79 429.653 1195.81 429.609 1195.84 429.578C1195.86 429.562 1195.87 429.542 1195.88 429.523C1195.9 429.503 1195.92 429.488 1195.93 429.467C1195.97 429.419 1196.01 429.374 1196.04 429.322C1196.06 429.294 1196.08 429.27 1196.09 429.243C1196.1 429.23 1196.11 429.215 1196.12 429.201C1196.12 429.193 1196.13 429.181 1196.13 429.174C1196.14 429.17 1196.15 429.155 1196.14 429.168C1196.1 429.222 1196.05 429.266 1196.02 429.322C1196 429.341 1195.99 429.368 1195.99 429.39C1195.99 429.399 1195.99 429.411 1195.99 429.42C1195.99 429.444 1195.92 429.446 1195.93 429.423C1195.94 429.388 1195.98 429.372 1196 429.353C1196.03 429.338 1196.03 429.306 1196.05 429.287C1196.06 429.282 1196.06 429.265 1196.06 429.258C1196.06 429.246 1196.06 429.281 1196.05 429.292C1196.05 429.315 1196.04 429.344 1196.02 429.363C1196.01 429.377 1196.01 429.367 1196.02 429.358C1196.06 429.321 1196.07 429.28 1196.09 429.232C1196.1 429.195 1196.13 429.163 1196.14 429.129C1196.16 429.095 1196.2 429.071 1196.22 429.037C1196.23 429.011 1196.25 428.982 1196.27 428.959C1196.28 428.946 1196.27 428.954 1196.26 428.962C1196.24 428.986 1196.23 429.013 1196.21 429.04C1196.19 429.076 1196.16 429.111 1196.13 429.141C1196.1 429.174 1196.05 429.185 1196.02 429.224C1196.02 429.235 1196.02 429.248 1196.02 429.26C1196.01 429.263 1196.01 429.271 1196.01 429.275C1196 429.284 1196.02 429.261 1196.03 429.254C1196.07 429.215 1196.12 429.179 1196.16 429.137C1196.2 429.09 1196.23 429.03 1196.26 428.977C1196.29 428.933 1196.32 428.895 1196.35 428.855C1196.37 428.828 1196.39 428.797 1196.41 428.77C1196.43 428.74 1196.45 428.705 1196.46 428.673C1196.48 428.652 1196.49 428.632 1196.5 428.609C1196.5 428.6 1196.51 428.597 1196.49 428.598C1196.47 428.599 1196.44 428.618 1196.43 428.639C1196.43 428.647 1196.42 428.656 1196.41 428.664C1196.4 428.678 1196.39 428.699 1196.38 428.711C1196.37 428.726 1196.36 428.748 1196.35 428.766C1196.34 428.782 1196.33 428.8 1196.33 428.817C1196.3 428.868 1196.27 428.919 1196.25 428.968C1196.23 428.989 1196.22 429.01 1196.21 429.031C1196.2 429.047 1196.19 429.059 1196.18 429.074C1196.17 429.088 1196.16 429.1 1196.15 429.111C1196.15 429.116 1196.15 429.081 1196.15 429.076C1196.17 429.04 1196.18 429.015 1196.21 428.992C1196.23 428.971 1196.27 428.951 1196.29 428.922C1196.3 428.906 1196.33 428.863 1196.33 428.842C1196.32 428.83 1196.3 428.864 1196.3 428.865C1196.29 428.884 1196.27 428.9 1196.26 428.912C1196.23 428.929 1196.22 428.967 1196.21 428.992C1196.2 428.996 1196.19 429.018 1196.2 429.023C1196.21 429.031 1196.24 429.019 1196.25 429.015C1196.28 429.003 1196.29 428.976 1196.3 428.952C1196.32 428.922 1196.35 428.894 1196.37 428.864C1196.4 428.815 1196.43 428.773 1196.45 428.715C1196.47 428.667 1196.49 428.623 1196.5 428.574C1196.51 428.554 1196.5 428.538 1196.51 428.52C1196.51 428.516 1196.51 428.503 1196.51 428.501C1196.5 428.494 1196.49 428.512 1196.49 428.515C1196.47 428.535 1196.44 428.543 1196.44 428.577C1196.44 428.592 1196.44 428.604 1196.43 428.617" stroke="white" stroke-width="0.1" stroke-linecap="round"/>
<path d="M1196.8 428.363C1196.78 428.366 1196.72 428.423 1196.71 428.442C1196.65 428.522 1196.61 428.618 1196.57 428.706C1196.53 428.82 1196.47 428.929 1196.43 429.043C1196.39 429.128 1196.36 429.217 1196.32 429.299" stroke="white" stroke-width="0.1" stroke-linecap="round"/>
<path d="M1195.49 430.513C1195.45 430.516 1195.4 430.572 1195.37 430.604C1195.32 430.684 1195.26 430.77 1195.21 430.853C1195.18 430.898 1195.15 430.955 1195.13 431.005C1195.11 431.06 1195.09 431.125 1195.06 431.174C1195.02 431.234 1194.99 431.298 1194.94 431.349C1194.88 431.405 1194.83 431.484 1194.81 431.56C1194.79 431.617 1194.79 431.673 1194.77 431.732C1194.76 431.786 1194.77 431.84 1194.75 431.892C1194.73 431.915 1194.73 431.943 1194.75 431.964C1194.77 431.996 1194.8 431.994 1194.83 431.975C1194.93 431.908 1195.01 431.826 1195.09 431.737C1195.19 431.627 1195.28 431.51 1195.36 431.382C1195.42 431.273 1195.51 431.177 1195.57 431.064C1195.6 431.001 1195.64 430.944 1195.66 430.872C1195.67 430.836 1195.68 430.802 1195.69 430.767C1195.7 430.735 1195.71 430.698 1195.72 430.665C1195.72 430.633 1195.72 430.629 1195.69 430.628C1195.67 430.626 1195.66 430.533 1195.66 430.517C1195.66 430.47 1195.66 430.424 1195.66 430.378C1195.66 430.328 1195.7 430.272 1195.72 430.228C1195.73 430.196 1195.73 430.158 1195.75 430.128C1195.76 430.104 1195.77 430.074 1195.78 430.049C1195.81 429.994 1195.85 429.944 1195.87 429.888C1195.9 429.842 1195.93 429.8 1195.95 429.756C1195.99 429.694 1196.03 429.617 1196.08 429.565C1196.1 429.542 1196.1 429.508 1196.12 429.481C1196.14 429.451 1196.17 429.425 1196.19 429.399C1196.22 429.359 1196.27 429.328 1196.31 429.299C1196.33 429.281 1196.35 429.247 1196.36 429.224C1196.39 429.196 1196.41 429.169 1196.43 429.138C1196.45 429.11 1196.47 429.081 1196.49 429.053C1196.5 429.034 1196.53 429.011 1196.53 428.991C1196.54 428.973 1196.56 428.949 1196.57 428.935C1196.6 428.906 1196.62 428.87 1196.65 428.842C1196.68 428.803 1196.72 428.743 1196.74 428.693C1196.74 428.675 1196.75 428.658 1196.76 428.639C1196.77 428.617 1196.79 428.603 1196.8 428.581C1196.81 428.565 1196.83 428.554 1196.83 428.538C1196.84 428.524 1196.85 428.498 1196.86 428.488C1196.88 428.469 1196.92 428.42 1196.92 428.393C1196.92 428.379 1196.92 428.42 1196.92 428.424C1196.91 428.466 1196.89 428.513 1196.88 428.553C1196.84 428.684 1196.81 428.819 1196.78 428.952C1196.76 429.015 1196.76 429.076 1196.73 429.135C1196.69 429.224 1196.64 429.307 1196.58 429.392C1196.5 429.521 1196.41 429.641 1196.33 429.767C1196.29 429.822 1196.28 429.882 1196.26 429.942C1196.23 429.994 1196.2 430.045 1196.17 430.095C1196.13 430.166 1196.1 430.226 1196.07 430.305C1196.05 430.38 1196.03 430.452 1196.01 430.528C1196 430.584 1196 430.643 1196 430.701C1195.99 430.758 1195.98 430.818 1195.97 430.875C1195.95 430.964 1195.93 431.051 1195.93 431.142" stroke="white" stroke-width="0.5" stroke-linecap="round"/>
<path d="M1196.84 428.377H1196.89" stroke="white" stroke-width="0.5" stroke-linecap="round"/>
</svg>
